inDegrees=yes
name=ik_data_dance
DataType=double
version=3
OpenSimVersion=4.5
endheader
time	pelvis_tilt	pelvis_list	pelvis_rotation	pelvis_tx	pelvis_ty	pelvis_tz	hip_flexion_r	hip_adduction_r	hip_rotation_r	knee_angle_r	knee_angle_r_beta	ankle_angle_r	subtalar_angle_r	mtp_angle_r	hip_flexion_l	hip_adduction_l	hip_rotation_l	knee_angle_l	knee_angle_l_beta	ankle_angle_l	subtalar_angle_l	mtp_angle_l	lumbar_extension	lumbar_bending	lumbar_rotation	arm_flex_r	arm_add_r	arm_rot_r	elbow_flex_r	pro_sup_r	wrist_flex_r	wrist_dev_r	arm_flex_l	arm_add_l	arm_rot_l	elbow_flex_l	pro_sup_l	wrist_flex_l	wrist_dev_l
25	6.073390804517098	-1.185262507313515	-12.99761788612223	0	0.9399999999999999	0	44.32821158436971	-9.931998894574631	0	60.36542131413862	1.053575356285281	-4.97638003729143	0	0	44.32821158436971	-9.931998894574631	0	60.36542131413862	1.053575356285281	-4.97638003729143	0	0	4.743505811381502	-1.919029198858263	-12.38522375963567	1.776327584339352	-4.405112549700087	-13.30603468526609	19.36126699566677	44.93485678453973	0	0	0	-12.71083692869503	0	75.02449346723957	44.93485678453973	0	0
26	10.07490292570207	-1.723408160387051	-15.33168087733083	0	0.9399999999999999	0	44.34977979530184	-9.937204241929273	0	60.35366084300443	1.053370097342404	-4.978542154259534	0	0	44.34977979530184	-9.937204241929273	0	60.35366084300443	1.053370097342404	-4.978542154259534	0	0	8.742836175416457	-1.785398222107896	-14.95573537036289	5.653679675143801	-3.820151311006688	-16.19954366986087	34.47328013721178	44.9391104430236	0	0	0	-12.75574461230649	0	75.02371276340692	44.9391104430236	0	0
27	15.52631159567362	-3.994511214414664	-15.88773053816406	0	0.9399999999999999	0	44.35804280665003	-9.939084587027354	0	60.34915721066679	1.053291494129813	-4.979307078406773	0	0	44.35804280665003	-9.939084587027354	0	60.34915721066679	1.053291494129813	-4.979307078406773	0	0	14.62337623682591	-2.582652585994624	-15.62011879001174	11.57542361514583	-3.190729743261154	-17.34986186092246	41.53343609468043	44.94067085933484	0	1.616420763446103e-35	0	-12.77320981332997	0	75.02341366627348	44.94067085933484	0	1.616420763446103e-35
28	19.79569704070124	-5.713646992898627	-15.84436213726587	0	0.9399999999999999	0	44.36551018274218	-9.940750500906811	0	60.34508405187164	1.053220404097881	-4.979980364328946	0	0	44.36551018274218	-9.940750500906811	0	60.34508405187164	1.053220404097881	-4.979980364328946	0	0	19.24263593716552	-3.00625121323792	-15.71687363405044	16.19858745727968	-2.416057993739542	-17.9054790618829	49.56419394195122	44.94206018895601	0	-6.312367698226728e-55	0	-12.78908389111371	0	75.0231433684516	44.94206018895601	0	-6.312367698226728e-55
29	23.65661000346763	-7.135943836870353	-14.97889307635235	0	0.9399999999999999	0	44.36785234880162	-9.941267072050778	0	60.34381184219728	1.053198199850288	-4.980188201313582	0	0	44.36785234880162	-9.941267072050778	0	60.34381184219728	1.053198199850288	-4.980188201313582	0	0	23.45817394592253	-2.933547973710188	-15.08599797259094	20.31775591486961	-0.9510317712665489	-17.87617971335766	55.85016833443265	44.94249238366453	0	4.612427833943074e-52	0	-12.79407427216386	0	75.02305858864378	44.94249238366453	0	4.612427833943074e-52
30	27.6623349825298	-8.717864395355853	-13.87682875023733	0	0.9399999999999999	0	44.36792216951149	-9.941289619741715	0	60.34378191993991	1.053197677608377	-4.980198113373883	0	0	44.36792216951149	-9.941289619741715	0	60.34378191993991	1.053197677608377	-4.980198113373883	0	0	27.88695252835577	-2.861621000428797	-14.15307282783774	24.66297581074243	0.6970706543771387	-17.52866781819667	54.49112590965375	44.942509862616	0	0	0	-12.79419943268681	0	75.02305606143284	44.942509862616	0	0
31	29.48517480766204	-9.053540864837233	-12.32052713233199	0	0.9399999999999999	0	44.37446699202376	-9.942700725707644	0	60.34019632257067	1.053135097128633	-4.980762089867412	0	0	44.37446699202376	-9.942700725707644	0	60.34019632257067	1.053135097128633	-4.980762089867412	0	0	29.96746811048384	-2.004376097722179	-12.96320103288768	26.58735868824505	2.466523770017175	-16.96117068480337	54.15304222117084	44.94369671817832	0	0	0	-12.8082517673946	0	75.0228191568538	44.94369671817832	0	0
32	29.72590167116761	-8.839685567529163	-12.54852816365669	0	0.9399999999999999	0	44.37672806414049	-9.943188819786252	0	60.33896436702543	1.05311359544813	-4.980957243977278	0	0	44.37672806414049	-9.943188819786252	0	60.33896436702543	1.05311359544813	-4.980957243977278	0	0	30.1279281828818	-1.917222809900089	-13.28331766794225	26.7227260675093	2.385396107467777	-17.27959810961927	52.05061919886103	44.94410712729597	0	-1.163853747945042e-52	0	-12.81310382117543	0	75.02273731227888	44.94410712729597	0	-1.163853747945042e-52
33	28.76946793283894	-8.92219766259689	-15.51097304702345	0	0.9399999999999999	0	44.37930798847984	-9.943743604621588	0	60.3375620418378	1.053089120256422	-4.981178621820857	0	0	44.37930798847984	-9.943743604621588	0	60.3375620418378	1.053089120256422	-4.981178621820857	0	0	28.7879318011432	-3.775801012490533	-15.64233683956051	25.72557981808757	-0.8282854272098769	-18.51466332672982	45.68029376104415	44.94457421776055	0	0	0	-12.81864160815206	0	75.02264392612634	44.94457421776055	0	0
34	26.48520404694742	-9.671166921635132	-20.24011803311122	0	0.9399999999999999	0	44.37943278884757	-9.943783050777244	0	60.33750872500779	1.053088189702192	-4.981195829664888	0	0	44.37943278884757	-9.943783050777244	0	60.33750872500779	1.053088189702192	-4.981195829664888	0	0	26.07696802923035	-7.456557933343048	-18.92989532468005	23.80592402951551	-6.571049706682755	-19.65960317275915	37.35554039107478	44.94460497094947	0	0	0	-12.81886642869061	0	75.02263940887515	44.94460497094947	0	0
35	23.26842490921392	-11.24013052368822	-25.24725117080802	0	0.9399999999999999	0	44.38220786071655	-9.944378691030554	0	60.33600386907668	1.053061925011426	-4.981433265189866	0	0	44.38220786071655	-9.944378691030554	0	60.33600386907668	1.053061925011426	-4.981433265189866	0	0	22.8281777619546	-12.28894686230917	-21.8348075208214	21.88082339229168	-13.52657307490329	-19.960692986982	25.5239492678035	44.94510679057419	0	0	0	-12.82482316912967	0	75.02253895891975	44.94510679057419	0	0
36	18.82720195313117	-12.76569664261094	-30.03612019974208	0	0.9399999999999999	0	44.39979710364612	-9.948127087940387	0	60.32642051959989	1.052894664009687	-4.982925052107553	0	0	44.39979710364612	-9.948127087940387	0	60.32642051959989	1.052894664009687	-4.982925052107553	0	0	18.84855420750154	-17.64726280195345	-24.26529582529258	19.6658734313318	-21.55741421888123	-19.70856410169533	8.189455016815369	44.94826911794313	0	-1.63523391872223e-35	0	-12.86270829188229	0	75.02190227623274	44.94826911794313	0	-1.63523391872223e-35
37	14.56800542134661	-11.94008739669134	-33.12103960158464	0	0.9399999999999999	0	44.41127244002639	-9.950497291804398	0	60.32017238458071	1.052785613481493	-4.983858643133191	0	0	44.41127244002639	-9.950497291804398	0	60.32017238458071	1.052785613481493	-4.983858643133191	0	0	14.22677694492789	-20.17754482568091	-25.34808691445746	16.05707391915933	-26.403477468458	-18.18889803225845	0.05394425490281005	44.95028435785655	0	0	0	-12.88765428916201	0	75.02148689945139	44.95028435785655	0	0
38	11.49237801752435	-9.59956443445911	-36.20996662208145	0	0.9399999999999999	0	44.42146061110086	-9.952514164206558	0	60.31460806961172	1.052688497864666	-4.984641688040679	0	0	44.42146061110086	-9.952514164206558	0	60.31460806961172	1.052688497864666	-4.984641688040679	0	0	9.793873147107297	-20.81846771990759	-26.87284338553855	11.54647408591637	-29.82192283867554	-16.92151130138866	0.01851392211802617	44.95201786065657	0	-2.898658610212287e-36	0	-12.91006024051152	0	75.02111811372271	44.95201786065657	0	-2.898658610212287e-36
39	9.311471445252531	-7.215026257143605	-38.47963396333675	0	0.9399999999999999	0	44.42910766265319	-9.95399288903549	0	60.31043258798292	1.052615621962387	-4.985211352166503	0	0	44.42910766265319	-9.95399288903549	0	60.31043258798292	1.052615621962387	-4.985211352166503	0	0	6.332127724414399	-20.61586264206189	-28.0362971706356	7.761528879063899	-31.83151616760365	-15.86648156214488	0.01354470966088754	44.95329632330543	0	-1.085704911609581e-36	0	-12.9269904537896	0	75.02084130964505	44.95329632330543	0	-1.085704911609581e-36
40	7.357646363903853	-4.345744225905527	-39.52518105921054	0	0.9399999999999999	0	44.43498483622805	-9.955115829706553	0	60.30723052842144	1.052559735480194	-4.985642197258141	0	0	44.43498483622805	-9.955115829706553	0	60.30723052842144	1.052559735480194	-4.985642197258141	0	0	2.961758988191357	-19.59961993757204	-28.10655698766049	4.107026124435365	-32.62431072448955	-14.00959451103632	0.01478338946593143	44.954270150093	0	-3.076841717672162e-56	0	-12.94004493471638	0	75.02062857057408	44.954270150093	0	-3.076841717672162e-56
41	5.912596351570874	-1.647172413590358	-39.6355927036325	0	0.9399999999999999	0	44.4399691403453	-9.95605381325573	0	60.30451444227474	1.052512330834166	-4.986000258647452	0	0	44.4399691403453	-9.95605381325573	0	60.30451444227474	1.052512330834166	-4.986000258647452	0	0	0.1743243409077728	-18.28778468995932	-27.46301451491613	1.10597539720245	-32.66210198086197	-11.91562841836269	0.02209810695812289	44.95508669726227	0	-6.04023448938606e-80	0	-12.95116382373195	0	75.02044815100614	44.95508669726227	0	-6.04023448938606e-80
42	5.661110288069929	-0.1924511187588148	-39.01681326193987	0	0.9399999999999999	0	44.44417288223351	-9.956837524609048	0	60.30222093398738	1.05247230156313	-4.986298679277742	0	0	44.44417288223351	-9.956837524609048	0	60.30222093398738	1.05247230156313	-4.986298679277742	0	0	-0.9008478519673808	-17.19984315118269	-26.60753015915161	-0.1422169070789163	-32.05152463276156	-10.58678413739612	0.02206690822011009	44.95577034976375	0	8.724801355671869e-114	0	-12.96057380253441	0	75.02029598577612	44.95577034976375	0	8.724801355671869e-114
43	5.667727211970203	0.2796454926209091	-39.55081028727827	0	0.9399999999999999	0	44.44565238944326	-9.957104825022578	0	60.30141194730216	1.052458182081868	-4.98639927914122	0	0	44.44565238944326	-9.957104825022578	0	60.30141194730216	1.052458182081868	-4.98639927914122	0	0	-1.181919298492616	-16.77901370345685	-27.08251715188974	-0.730192802357672	-31.86525183128343	-10.71736113597308	0.01927088666437584	44.95600551066983	0	2.694034605743505e-36	0	-12.96391045032183	0	75.02024243113591	44.95600551066983	0	2.694034605743505e-36
